<?xml version="1.0" encoding="utf-8"?>
<!-- Svg Vector Icons : http://www.sfont.cn -->
<!DOCTYPE svg PUBLIC "-//W3C//DTD SVG 1.1//EN" "http://www.w3.org/Graphics/SVG/1.1/DTD/svg11.dtd">
<svg version="1.1" xmlns="http://www.w3.org/2000/svg" xmlns:xlink="http://www.w3.org/1999/xlink" x="0px" y="0px" viewBox="0 0 1000 1000" enable-background="new 0 0 1000 1000" xml:space="preserve">
<metadata> Svg Vector Icons : http://www.sfont.cn </metadata>
<g><g><path d="M954.1,528.2c-14.2-14.2-28.5-25-42.9-32.5c-1-2.2-2.8-4.4-3.9-6.6c9.2-1.7,18.1-4.5,26.2-9.7c6.7-4.4,10.4-11,9.9-18.1c-0.1-1.4-0.3-2.7-0.7-4c31.4-22.3,47-46.8,46.4-73c-1.5-60-86.8-109.8-162-153.7c-33.4-19.5-83.9-49-85.5-59.9c0,0,0.5-0.9,2.8-2.3c6.3-4.1,8-12.6,4-18.9c-3.6-5.5-10.6-7.6-16.3-5.3c-1.4-2-3.3-3.6-5.5-4.7c-4.2-1.9-9.1-1.5-13.1,1c-3.7,2.3-6.4,4.8-9.8,7.2c-2.6-2.9-5.1-5.9-8-8.7c-50-50-94.3-68.9-135.2-58.1c-20.9,5.6-39.2,18.8-55.7,37.9c-2.8,0.7-5.6,2.2-8.5,4.3c-1.3-14.6-8.5-28.6-21.7-41.7c-37.3-37.3-75-52.3-112-44.2c-11.6,2.5-22.7,7.2-33.2,13.6c-23.1-14.3-45.5-19.1-67.4-14c-55.2,12.6-92.2,85.1-121.3,160.9c-4.9-0.3-9.1,1-12.5,4.5c-6.1,6.1-6.1,16,0,22c0.6,0.6,1.2,1.2,2,1.9c-4.8,13.2-9.3,26.1-13.7,38.7c-0.6,1.8-1.3,3.5-1.9,5.4c-36.7,30.4-66.7,57.2-68,84.2c-0.6,10.6,3.4,20.4,11.4,28.4c5,4.9,10.1,7.3,14.5,8.2c-33.2,29-55.9,60.1-61.2,94.4c-5.6,36.3,9.4,72.6,44.6,107.9c8.9,8.8,18,16.3,27.3,22.3c-6,14.3-9.4,28.3-10.1,42c-1.4,27.7,8.7,52.7,30.1,74c30,30,57.9,48.8,84.3,56.7c5.4,6.8,11.5,13.6,18.3,20.4c18,18,36.8,24.9,55.6,20.5c6.8-1.5,13.2-4.6,19.5-8.9c7.4,11,16.7,22.1,27.7,33.2c36,36,69.1,53.2,100.9,52.7c0,0.1,0.1,0.1,0.1,0.2c2.1,3.4,5.6,4.9,9.1,5.6c0.1,0.1,0.2,0.2,0.3,0.3c35.7,35.7,68.3,53.2,99.1,53.2c6.7,0,13.3-0.8,19.8-2.5c4.9-1.2,9.8-3,14.4-5.1c3.1,0.4,6.1,0.3,9.2-0.3c19.9-3.8,37.1-28.5,58.9-73.3c17.4-6.1,34.5-14.3,51.5-25.4c12.2-7.9,23-16.2,33.1-24.6c1.4,11.5,3.9,25,7.7,41.9c-3.1,1.9-5.3,3.2-5.6,3.3c-4.2,2.5-7,6.7-7.6,11.5c-0.6,4.8,1.1,9.6,4.4,13.1c1.4,1.3,3,1.8,4.5,2.8c0.2,0.3,0.2,0.5,0.4,0.8c4.9,7.9,12,19.1,21.9,19.1c1.8,0,3.7-0.4,5.7-1.2c10.3-4.2,11.2-12.7,7.7-31.7c0.5-0.5,0.8-0.9,1.3-1.5c4.8-3.1,10-6.4,15.9-10.4c4.2,2.3,9.1,3.1,13.4,0.4c4.8-3,7.1-8.4,6.3-13.5c4.1,9.4,10.2,18.4,18.5,26.7c9.4,9.4,18.7,8.8,23.3,7.7c15.9-4,21.6-22.6,28.7-46.1c3.5-11.2,9.8-32.1,12.1-35.1c0,0,1.8,0.6,5.2,4.1c6.2,6.2,16,6.2,22.1,0c6.1-6.1,6.1-16,0-22c-4.7-4.8-9.6-8.2-14.3-10.5c54.7-49.4,104.8-109.4,112.4-168C993.8,588.8,982,556,954.1,528.2z M735.2,805c27-31,41.5-65,43.1-101.4l10,8.8c-17.4,30.7-32,66.8-45.1,100.3C740.4,809.7,737.7,807,735.2,805z M594.9,862.9c-19.6,4.8-39.3,5.7-59.2,3.1c13.2-18.8,25.3-42.5,36.8-69.4c18.4-14.3,40.5-28.4,65-42.2C624.5,794.4,610.5,832.2,594.9,862.9z M126.9,599.1c1.4,0.8,2.9,1.5,4.3,2.3c-1.8-0.3-3.6-0.3-5.4-0.7C126.1,600.2,126.5,599.6,126.9,599.1z M142.8,576.6c7-9.1,14.9-18.3,23.4-27.6c7,12.4,14.4,25.8,22.2,39.3c-3.8,2.1-7.6,4.5-11.5,6.1C164.9,588.5,153.5,582.5,142.8,576.6z M142.8,377.2c0.4,2.5,0.7,5.1,1.3,7.6c-2.6,6.1-5.1,11.7-7.3,15.9c-0.5-0.2-0.8-0.4-1.3-0.5c0,0-0.1,0-0.1,0c-3.2-4.2-6.1-8.3-8.2-12.5C132.2,384.2,137.5,380.8,142.8,377.2z M264.4,179.3c0.5,0.7,0.8,1.2,1.3,1.9c-1.2,0.8-2.5,1.7-3.7,2.5C262.7,182.2,263.5,180.8,264.4,179.3z M304.2,286.9l56.3,49.5c-13.2,10.9-26,21.7-39.3,32.6c-35.7,29.2-71.7,58.8-104.9,88.2c-10.6-12.6-21.2-27.3-31.8-44.3c-4.1-6.6-7.1-13.4-9.7-20.4c5.2-12.2,11-27.1,18.1-45.8c32-18.4,66-36,98.7-53.1C295.8,291.3,299.9,289.2,304.2,286.9z M537.7,143.9c4.1,6,8.4,12.3,12.6,18.5c-2.6,2.7-5.3,6.1-8.1,10.4c0.1-1.2,0.5-2.4,0.6-3.5C543.2,160.2,541.1,151.9,537.7,143.9z M822.2,304.8c6,4.8,12.1,10.4,18.4,16.7c31.9,31.8,45.8,62.4,43.4,93.1c-8.2-4-16.9-8.3-27-13.1c-12.9-6.1-27-13-41.4-20.2c4.8-9.4,8.5-19.1,10.3-29.2C828.6,336.4,827.4,320.7,822.2,304.8z M831.1,714.4c-1.2-1.9-2.6-3.9-3.9-5.8c3.8-5.5,7.6-10.6,11.6-15.1c-2.3,7-4.7,13.9-7.7,21C831.1,714.5,831.2,714.4,831.1,714.4z M657.5,561.2c4-9.8,8-19.1,12-28.1c9.3,10.3,18.1,20.7,26.1,31.1c-2.6,7.7-5.1,15.8-7.7,23.8L657.5,561.2z M592.3,662.4c-0.7,1.7-1.2,3.4-1.8,5.1c-5,3-10.3,6-15.2,8.9c10.3-31.2,20.3-64,30.4-97.1c2.2-7.2,4.5-14.4,6.6-21.6l12.8,11.2C614,598.3,603.2,630.1,592.3,662.4z M180.2,469c-9.9-19.3-16.9-32.9-22.5-42.9c0.5-0.8,1.1-1.7,1.7-2.6c0.7,1.2,1.2,2.5,1.9,3.7c11.5,18.4,23.1,34.3,34.9,48.1c-2.9,2.6-5.8,5.3-8.6,8C185.1,478.5,182.4,473.5,180.2,469z M367.6,306.4c5.5,3.2,11.3,6.6,17,10c-0.9,0.8-1.9,1.6-2.9,2.4L367.6,306.4z M510.7,760.5c-1.3-1.4-2.7-2.7-4.1-4c2.8-2,5.4-3.9,8.3-5.8C513.5,754,512.1,757.2,510.7,760.5z M464.6,842.4c-8.9-4.9-17.6-10.3-26.2-16.2c-0.8-2.1-2.1-4.3-2.9-6.4c10.9-15.2,27.8-31.1,49-47.3c5.5,5.3,9.9,10.6,13.4,16C487.4,809.6,476.3,828.1,464.6,842.4z M291.6,535.9c-0.5,0.3-0.8,0.5-1.3,0.7c0.2-0.3,0.5-0.6,0.7-0.8C291.2,535.8,291.3,535.9,291.6,535.9z M581.8,230.7c3.5,16.8,3,33.4-0.4,50.1l-27.1-31.1C563.4,242,572.5,235.4,581.8,230.7z M611,252.2c17.6,26.2,35.5,52.8,53.4,79.5c-2.1,3.6-4.1,6.9-6,10.6c-4.4,3.6-9.3,7.2-14,10.7l-41.7-47.8c1.3-3.9,3.3-7.5,4.2-11.4C610.5,280.1,611.4,266.2,611,252.2z M711.4,402.4c-3.7,4.4-8.3,8.6-12.9,12.9l-26-29.9c3.4-7.8,6.9-15.4,10.4-22.6c0.5-0.4,0.9-0.9,1.4-1.3C693.5,375.3,702.5,388.9,711.4,402.4z M746.1,454.9c-1.9,2.6-3.5,6.1-5.4,8.9l-3-3.5c2.7-1.9,5.7-3.6,8.3-5.5C746.1,454.8,746.1,454.8,746.1,454.9z M764.8,483.4c7.2,10.8,14.3,21.7,20.8,31.8L762,488.1C763,486.5,763.9,484.9,764.8,483.4z M428.6,583.1c-13.7,7.1-27,14.2-39.7,21.4c3.8-10.9,7.6-22.1,11.5-33.4c6.5-19,13.2-38.5,20.2-58.2c11.8-5.9,23.6-11.9,35.4-17.7c18.3-9.1,36.4-18.2,54.2-27.3l44.7,39.3C510.8,531.3,466.4,555.9,428.6,583.1z M580.3,493.3l-44.1-38.8c10.2-5.3,20-10.6,29.7-15.9c14,10.9,27.7,22.2,41,33.7c-0.8,2.4-1.6,4.9-2.4,7.4C596.4,484.3,588.5,488.8,580.3,493.3z M660.8,413.5l16.9,19.4c-7.5,5.6-15.3,11.3-23.8,16.8c-1.4-2.1-2.8-4.3-4.3-6.4C653.3,433,657.1,423.1,660.8,413.5z M628.5,411.2c-1.5-2.2-2.9-4.3-4.3-6.5c2.8-1.8,5.9-3.5,8.6-5.2C631.3,403.2,629.9,407.4,628.5,411.2z M616.6,443.2c-0.1,0.4-0.3,0.7-0.4,1.1c-7.9-6.8-16.1-13.5-24.2-20.1c3-1.7,5.7-3.5,8.6-5.2C605.9,427.1,611,434.7,616.6,443.2z M572,311.4c-1.2,2.6-2.8,5.1-4.1,7.7c-11.1-17.1-21.7-33.3-31.5-48.5L572,311.4z M591.1,333.4l30.9,35.5c-4.9,3.3-9.9,6.5-15,9.8c-7.7-11.8-15.1-23.1-22.6-34.4C586.7,340.6,589.1,337.1,591.1,333.4z M583.5,393c-6,3.5-11.9,6.9-18.1,10.4c-5.3-4-10.8-8-16.2-12c6.8-7.3,12.7-14.8,18.6-22.4C572.9,376.9,577.9,384.5,583.5,393z M538.8,418c-9.1,4.9-18.3,9.7-27.7,14.6l-3.3-2.8c7.4-6.2,14.4-12.5,21.2-18.9C532.4,413.1,535.5,415.6,538.8,418z M455.3,419.7l10.1,8.9c-6.3,4.7-12.5,9.3-19,13.9C449.3,434.8,452.3,427.2,455.3,419.7z M487.2,411.6l-21-18.5c2.8-6.8,5.7-13.4,8.6-20.1c10.6,7,21.2,14.3,31.8,21.8C500.4,400.5,494,406,487.2,411.6z M420.5,788.5c-14.1-26.2-32.2-54.6-53.2-84c34.9,15.4,67.2,31.4,92,48C444.2,764.4,431,776.4,420.5,788.5z M482,735.5c-28.5-20.7-66.2-39.7-108.7-58.1c11.4-20.2,29.3-38.7,50.7-56.4c38.9-21,82.3-41.5,125.4-61.7c11.7-5.4,23.3-10.8,34.8-16.3c-2.8,9.1-5.5,18.1-8.3,27.2c-13.4,43.6-27.3,89.1-42.2,131.3C515.2,712.9,497.9,724.2,482,735.5z M693.9,487.4c7.1-4,14-8,20.7-12.1l11.5,13.3c-6.4,12.8-12.5,27.1-18.4,42.3c-7-10.6-14.1-21.1-21.1-31.7C689.2,494.9,691.5,491.1,693.9,487.4z M729.3,562.8c6.3-17.5,12.7-33.8,19.4-48.5l18.3,21.1c-10.5,11.5-20.5,24.5-30.3,38.7C734.3,570.2,731.8,566.5,729.3,562.8z M744.9,402.9c0.1-0.1,0.2-0.3,0.2-0.4c2.6,2.5,5,4.6,7.6,7c-0.7,0.6-1.4,1.3-2.1,1.9C748.5,408.5,746.9,405.9,744.9,402.9z M733,334.5c-4.5-3-9.1-6.1-13.3-9.2c2.4-3.1,4.4-6.3,6.5-9.3C729.2,322.2,731.6,328.5,733,334.5z M687.1,296.8c-14.1-15.2-23.4-31.1-24.5-47.5c-0.3-3.6,0.7-7.4,1.4-11.1c13,9.6,26,23.3,38.9,40.9C697.4,284.3,692.2,290.2,687.1,296.8z M636.3,233.3c-2.7-3.5-5.6-7.6-8.3-11.2c3.7,0.5,7.5,1.5,11.1,2.8C638.4,227.7,636.8,230.5,636.3,233.3z M565.5,188.3c-0.7,0.5-1.3,1-2,1.5c0.5-0.7,1-1.8,1.4-2.5C565.2,187.7,565.3,188,565.5,188.3z M517,290.9c10.4,16.2,21.9,34,35,54c-7.4,10.4-15.8,20.4-25.1,30.3c-13.2-9.3-26.2-18.3-39.3-27c7-13.8,13.6-27.4,19.9-40.9C510.6,301.8,513.8,296.2,517,290.9z M438.2,352.9c0.3-1.1,0.6-2.1,0.9-3.2c0.3,0.2,0.5,0.4,0.7,0.5C439.4,351.1,438.8,352,438.2,352.9z M400.6,371.7c-5.4,19.7-10.9,39.3-16.3,59.5c-2.5,9.3-5.1,18.6-7.7,27.9c-0.2,0.4-0.4,0.7-0.6,1.1c-3.7,6.8-7.6,13.6-11.4,20.5c-16.9,14.9-34.6,24.6-52.9,27.4c30.2-42.4,58.4-91.3,84.5-140.1L400.6,371.7z M275.3,504c-12.2-4.8-24.6-13.2-37.3-24.5c33-29.2,68.5-58.4,102.8-86.5c3.6-3,7.2-5.9,10.8-8.8C328,426.5,302.1,468.3,275.3,504z M258,526.1c-6,7.3-12.1,13.7-18.2,20.1c-11.7-13.4-22.9-25.9-33.5-37.7c3.8-3.6,7.4-7.2,11.4-10.8C231,510.1,244.5,519.8,258,526.1z M256.6,607.9c3.8,4.6,7.7,9.3,11.5,13.9c-0.8,0.7-1.6,1.3-2.4,1.9c-3.2-5.1-6.5-10.4-9.5-15.5C256.3,608.1,256.4,608,256.6,607.9z M279,592.1c9.7-6.4,19.9-12.9,30.5-19.3c-7.5,11.1-14.8,21.2-21.8,29.6C284.8,598.9,282,595.5,279,592.1z M345.3,567.8c-8.2,26.3-16.8,51.1-25.8,73.8c-4.8-6-9.6-12-14.4-18C318.2,608.8,331.5,590,345.3,567.8z M360.5,742.7c9.3,13.5,18.3,26.9,25.8,39.4c-8.2-8-15.8-17.5-23.6-26.2C361.6,751.4,361.1,747,360.5,742.7z M531.9,790.3c9.7-20.9,18.8-43.8,27.6-68.2c4.9-3,10.4-6.1,15.4-9.1c-7.2,20.4-14.5,40.4-22,59.3C545.3,778.2,538.2,784.2,531.9,790.3z M621.2,529.2c0.5-1.5,0.9-3.1,1.4-4.6c9.1-4.4,17.8-8.8,26.4-13.2c0.1,0.1,0.2,0.2,0.4,0.3c-4.6,9.6-9.1,19.8-13.4,30.4L621.2,529.2z M756.7,603.7c15.1-10,29.6-20.2,43.4-30.4l31.9,36.6c-14.8,10.7-31.7,21.3-49.8,31.7C773.7,629.1,765.3,616.6,756.7,603.7z M821,414.4c4.9,2.3,9.4,4.5,14,6.7c-3.8-1.5-7.6-2.9-11.4-3.8C822.9,416.3,821.9,415.6,821,414.4z M847.6,427.2c10,4.8,20.2,9.8,30.1,14.7c-0.8,2-1.4,4-2.3,6.1C866,439.1,856.8,432.5,847.6,427.2z M795.2,346.7c-0.7,4.4-2.5,8.7-4.2,12.9c-10.8-24.5-20.1-51.2-28-78.1c3.8-0.3,7.4-1.1,11.4-0.6C792.1,304.2,798.8,325.8,795.2,346.7z M715.9,225.1c2.9,10,3.4,19.8,2.3,29.5c-14.6-18.1-29.5-31.9-44.6-41.7c1.8-2.7,4.5-5.3,6.6-8C691.7,209.8,703.6,216.4,715.9,225.1z M650.1,200.7c-5.8-2.1-11.6-3.8-17.5-4.9c1.9-0.1,3.6-0.6,5.4-0.6c4.9,0,9.7,0.7,14.7,1.5C651.8,198.1,650.8,199.4,650.1,200.7z M498.4,261.8c-5.5,8.4-10.9,17.4-16.2,26.6c-9.2,12.2-18.4,24.9-27.4,38.5c-2.5-1.6-5-3.2-7.5-4.8c2.6-8.6,5-17.7,7.7-26.1c14.8-13.7,28.1-27,39.8-39.9C495.9,257.9,497.2,260,498.4,261.8z M421.9,249.3c-6.8,13.7-14.3,28.6-22.1,43.9c-18.7-11-36.1-20.9-51.8-29.6c37.3-20.1,70.9-39.6,96.4-59.2C437.8,217.6,430.3,232.5,421.9,249.3z M150.5,520.4C138,533.8,126.3,547,116.3,560c-25.2-17.4-41.9-35.4-43.8-54.1c-1.8-18.3,10.9-38.6,37.6-60.5C116.1,456.8,130.7,484.4,150.5,520.4z M327.7,757.9c3.8,4.6,7.7,9,11.6,13.4c1.9,6.1,3.5,12.1,6.2,18.3c-6.3-9.1-12.8-18.6-19.5-28.5C326.6,760.1,327.2,759,327.7,757.9z M592.5,744.9c6.3-17.3,12.4-35.1,18.6-53.3c7.2-4.2,14.2-8.4,21.4-12.7c11.2-6.5,22.5-13.1,33.6-19.6c-0.9,3.1-1.8,6.2-2.7,9.2c-4.2,14.1-8.4,28.6-12.7,42.9C630.2,722.6,610.7,733.6,592.5,744.9z M626.5,646.5c6.7-19.6,13.5-39.2,20.6-58.3l31.4,27.6C661.1,626.3,643.7,636.4,626.5,646.5z M724.4,656.2l12,10.6c-8,4.2-16,8.4-24.1,12.6C716.2,671.5,720.3,663.9,724.4,656.2z M851.3,634.5c-0.3,4-1.2,8.2-1.7,12.3c-15,6.9-28.7,18.7-40.8,34.4c-3.2-4.6-6.1-9-9.2-13.6C818.2,656.8,835.9,645.9,851.3,634.5z M812.5,732.9c2.9,2,6.2,2.5,9.4,2c-8.5,17.5-18.1,35.3-30.2,53.7c-0.2,0.3-0.5,0.6-0.7,0.9c-3.5,5.2-7.8,10.8-11.7,16.2C789.1,781.6,800.2,755.6,812.5,732.9z M873.8,671.4c0.9-0.1,1.8-0.3,2.7-0.3c8.4,0,17.2,3.5,26.6,10.3c-1.6,1.2-3.3,2.4-5.1,3.8c-10.1,7.6-23.2,17.4-36.9,28.8C866.6,699.1,870.9,684.9,873.8,671.4z M855.9,525.6c3.7-3.7,7.8-7.4,11.2-11.2c6.5,0.4,13,1.8,19.6,4.3c2.1,7.3,2.5,14.6,1.4,21.6c-1.6,10.5-7.2,20.5-14.6,30.6C869.3,554.1,863.2,539.1,855.9,525.6z M852.3,483.8c-2.3,0.3-4.7,0.6-6.9,1c-4.5,0.8-8.9,2.2-13.3,3.7c-11.6-16.1-22.9-28.9-34-39c0.2-0.1,0.4-0.2,0.6-0.3c19.7,14.8,38,25.8,55,32.6C853.2,482.6,852.8,483.2,852.3,483.8z M961.8,384.9c0.5,17.2-12.1,34.6-37.3,51.8c-3.3-2.2-7.1-4.5-11.2-6.9c0.4-2.3,1.3-4.6,1.6-6.9c5.5-41.8-12.1-83.5-52.2-123.6c-24.9-24.8-48.4-40.4-71.1-46.8c-4.4-5.2-9.1-10.4-14.3-15.5c-4.7-4.7-9.4-9.1-14.1-13.3c13.9,9,30.5,18.8,50.3,30.4C875.6,290.4,960.8,340.1,961.8,384.9z M568.5,111c28.7-7.6,64.2,9.2,105,50c2,1.9,3.6,3.9,5.4,5.8c-1.2,1.1-2.1,2.3-3.4,3.4c-21.8-6.6-43.2-7.8-63.7-3.1c-6.6,1.5-13.1,3.8-19.4,6.4c-7.4-10.3-14.7-20.4-22.3-31.5c-6-8.6-10.4-14.9-14-19.3c-0.2-0.3-0.4-0.7-0.7-0.9l-0.1,0.1c-1.3-1.5-2.4-2.4-3.5-3.4C557.3,115.2,562.8,112.5,568.5,111z M511.4,161.9c0.3,1.9,0.4,3.7,0.3,5.7c-0.3,7.4-3.3,15.5-7.7,24.3l-5.5-6.3C502.6,177.3,506.9,169.1,511.4,161.9z M362.7,77.9c-2.2-2.1-4.3-4.2-6.5-6.2c4.2-1.8,8.5-3.2,12.9-4.1c26.2-5.9,53.7,6,83.4,35.8c13.1,13.1,13.4,22.4,12.5,28.3c-0.5,3.5-2.5,7-4.3,10.6l-4.9-5.6c-4.5-5.1-12-6.2-17.7-2.5c-3.1,2-5.4,5.5-6.1,9.1c-0.5,2.1-0.9,5.2,8.9,23.6c-27.4,25.1-74.6,52.1-125.6,79.1c-22.9-12.1-38-19.5-41.2-21.1c-6.1-2.9-13.5-1-17.3,4.8c-3.7,5.7-2.7,13.3,2.4,17.8l20,17.5c-0.6,0.4-1.3,0.7-2,1.1c-22.4,11.6-45,23.4-67,35.3c7.8-20,16.4-41.5,25.8-62.9c9.6-6.5,19.2-12.9,28.4-19c6.6-4.4,13-8.6,19.3-12.9c13.7,17.2,20.8,19,29.4,14.9c10.5-5.1,11-15.7,4.3-38.5c33.3-24.4,56.3-46.6,58.7-70.5C377,103.8,375.4,90.7,362.7,77.9z M340.6,100c4.9,4.9,4.6,8.1,4.5,9.4c-1.1,11.1-16.9,26.3-38.2,42.6c-1-2.8-2-5.4-3-8.5c-1.7-4.7-3.3-8.9-4.4-12.2c0.5-2.1-0.7-4.4-1.6-6.6c10-13.7,20.3-26,31.2-35.4C332.9,92.5,336.8,96.1,340.6,100z M268.8,67.1c10.5-2.5,21.8-0.8,33.7,4.6c-17.3,16.5-33.1,37.8-47.6,61.4c-1,0.4-2.1,0.4-3.1,1c-4.6,2.9-6,8.1-5.3,13.3c-2.5,4.4-5.1,8.8-7.6,13.3c-1,1.2-2,2.3-3.1,3.5c-1.5-11.5-6.7-22.2-16.1-31.7c-4.2-4.2-8.5-5.8-12.2-6.3C225.5,95.2,245.8,72.4,268.8,67.1z M147.3,310.5c-2.8,10.1-4.5,20.4-5.5,30.7c-6.5,4-13.4,8-19.5,12.1C125.4,339,134.7,324.7,147.3,310.5z M90.6,334c-4.7,10.8-9.1,19.4-12.7,24c-0.3-0.8-0.4-1.5-0.3-2.2C77.8,350.2,82.9,342.5,90.6,334z M77.8,571.1c-28.3-28.2-40-54.7-35.9-81.1c4.4-28.8,27.3-56.6,60.2-83.4c1.4,2.3,3.2,4.7,4.8,7c-44.3,32.2-64.5,63.4-61.5,94.9c2.7,27.9,23.5,52,55.3,74.1c-1,1.7-2.4,3.3-3.4,4.9C90.9,583.1,84.3,577.7,77.8,571.1z M125.1,709.4c-15.1-15-22-31.6-21-50.3c0.5-9.6,2.9-19.7,7.1-30.2c15.7,5,31.7,6.3,48.2,3.5c7.3-1.2,14.5-3.3,21.6-6c2.1,1,4.2,2,6.3,3c-16.3,19.6-27.4,40.2-31.1,62.4c-2.6,15.8-1.3,31.7,3.8,47.7C149,731.6,137.3,721.6,125.1,709.4z M205.2,760.3c-15.5-22-21.4-42.9-18.1-63.4c3-18.7,14-36.7,30.3-54.4c0.1,0.1,0.3,0.1,0.4,0.2c1.5,1.4,3,2.6,4.5,3.8c14.1,23.8,28.8,48,43.7,71.8c-2.6,6.5-4.8,13.2-6,20.1c-0.3,1.5-0.5,3-0.7,4.6c-9.1,8-18.8,13.7-29,16.4C222.3,761.5,214,761.8,205.2,760.3z M254.3,798.8c-2.6,0.7-9.9,2.2-21.9-7.9c2-0.4,3.9-0.8,5.9-1.3c8.2-2.2,16-5.6,23.5-10c1.2,4.4,2.6,8.9,4.4,13.4C262.1,795.8,258.2,797.9,254.3,798.8z M289.6,756.5c0.2-0.2,0.3-0.3,0.4-0.5c0.7,1,1.4,2.2,2.1,3.3c-0.7,1.2-1.4,2.6-2.1,3.7C289.8,760.8,289.6,758.6,289.6,756.5z M303.4,798c2.5-3.3,4.9-7.6,7.4-11.2c18.8,27.4,37.2,52.6,54.3,73.1c-11-7.1-22.5-16.5-34.5-28.6C319.1,819.9,310,808.8,303.4,798z M463.3,909.9c4,0.4,8.1,0.5,12.1,0c9-1.1,17.4-4.4,25.4-9.2c4.6,11.1,11,22.2,20.2,33.3C502.9,934.6,484.2,926.4,463.3,909.9z M551.7,921.7c-9.2-9.7-15.5-19-20-28.1c15,2,30.1,2.1,45.1,0.4C568.9,905.5,560.5,914.9,551.7,921.7z M657,835.8c-6.4,4.2-12.8,6.9-19.3,10.4c6.4-14.4,13.1-29.6,20.4-46.8c10.1-23.2,20.7-48.3,32.2-73.5c7.7-4,15.6-8,23.3-12.1c12.5-6.4,24.9-12.8,37.2-19.2C751.6,747.1,720.3,794.7,657,835.8z M821.7,848c-1.7,5.6-4,13-6.1,18.7c-4.1-5.4-6.8-11-8.2-16.9c5.9-4.3,11.9-8.9,18-13.5C824.2,840,823,844,821.7,848z M821.5,799.5c22.1-33.2,63.4-65.5,88.5-84.4C884.6,745.5,852.5,774.6,821.5,799.5z M958.2,621.5c-2.2,16.9-8.8,34.2-18.5,51.4c-0.7-1-1.3-1.9-2.1-2.7c-16.3-16.3-32.8-25.5-49.3-28.7c0.1-0.3,0.3-0.5,0.3-0.8c0.5-2.2,1-5.5-9.3-24.8c0-1.6,0-3.2,0-4.8c21.3-20.3,35.8-41.9,39.7-66.1c0.3-2.1,0.6-4.3,0.7-6.4c4.1,3.5,8.2,7.3,12.4,11.5C953.1,571.2,961.7,594.5,958.2,621.5z"/></g><g></g><g></g><g></g><g></g><g></g><g></g><g></g><g></g><g></g><g></g><g></g><g></g><g></g><g></g><g></g></g>
</svg>